<svg height="56" viewBox="0 0 56 56" width="56" xmlns="http://www.w3.org/2000/svg"><path d="m27.9999 51.9063c13.0547 0 23.9064-10.8282 23.9064-23.9063 0-13.0547-10.8751-23.9063-23.9298-23.9063-13.0782 0-23.8828 10.8516-23.8828 23.9063 0 13.0781 10.8281 23.9063 23.9062 23.9063zm0-3.9844c-11.0625 0-19.8985-8.8594-19.8985-19.9219 0-11.0391 8.8126-19.9219 19.8751-19.9219 11.039 0 19.9218 8.8828 19.9454 19.9219.0235 11.0625-8.8829 19.9219-19.922 19.9219zm-12.2812-17.3907h12.2578c.914 0 1.6406-.7031 1.6406-1.6406v-15.7969c0-.914-.7266-1.6171-1.6406-1.6171-.9141 0-1.6172.7031-1.6172 1.6171v14.1797h-10.6406c-.9141 0-1.6173.7032-1.6173 1.6172 0 .9375.7032 1.6406 1.6173 1.6406z"/></svg>