<svg viewBox="0 0 1024.004 1066.744" xmlns="http://www.w3.org/2000/svg"><path d="M512 1045.333l-1.407.002c-140.944 0-268.498-57.324-360.62-149.93l-.022-.022C57.325 803.238 0 675.683 0 534.74c0-.495 0-.99.002-1.485v.077L0 531.924c0-140.944 57.324-268.498 149.93-360.62l.022-.022c92.145-92.627 219.7-149.95 360.643-149.95h1.485-.077 1.408c140.945 0 268.5 57.323 360.622 149.93l.02.02c92.628 92.146 149.952 219.7 149.952 360.644 0 .495 0 .99-.002 1.485v-.076l.002 1.408c0 140.944-57.324 268.498-149.93 360.62l-.022.022c-92.145 92.627-219.7 149.95-360.643 149.95h-1.486.077zm0-934.957c-233.48.278-422.677 189.476-422.955 422.93v.026c.278 233.48 189.476 422.678 422.93 422.956H512c233.48-.278 422.68-189.476 422.957-422.93v-.026c-.278-233.48-189.476-422.678-422.93-422.956h-.026zm44.523 636.66H338.366v-89.042h218.157c22.13 0 40.07-17.94 40.07-40.07s-17.94-40.07-40.07-40.07h-84.59c-71.308 0-129.114-57.806-129.114-129.113 0-71.306 57.805-129.112 129.112-129.112h213.704v89.043H471.932c-22.13 0-40.07 17.94-40.07 40.07s17.94 40.07 40.07 40.07h84.59c71.308 0 129.114 57.807 129.114 129.114S627.83 747.037 556.523 747.037zm0-338.364H467.48V235.037h89.043zm0 422.957H467.48V657.993h89.043z" fill="white"/></svg>